<svg width="98" height="148" viewBox="0 0 98 148" fill="none" xmlns="http://www.w3.org/2000/svg">
<path fill-rule="evenodd" clip-rule="evenodd" d="M62.1343 1.55441C61.3533 0.773365 60.0869 0.773367 59.3059 1.55442L6.2701 54.5902L0.613252 60.2471C-0.167796 61.0281 -0.167796 62.2944 0.613252 63.0755L6.27011 68.7323L45.4598 107.922C46.2409 108.703 46.2409 109.969 45.4598 110.751L23.6343 132.576C22.8533 133.357 22.8533 134.623 23.6343 135.404L34.948 146.718C35.7291 147.499 36.9954 147.499 37.7765 146.718L90.8123 93.6824L96.4691 88.0255C97.2502 87.2445 97.2502 85.9781 96.4691 85.1971L90.8123 79.5402L51.6225 40.3505C50.8415 39.5694 50.8415 38.3031 51.6225 37.5221L73.448 15.6965C74.2291 14.9155 74.2291 13.6492 73.448 12.8681L62.1343 1.55441ZM37.4804 54.4926C36.6993 53.7116 35.433 53.7116 34.652 54.4926L28.8975 60.2471C28.1165 61.0281 28.1165 62.2944 28.8975 63.0755L59.602 93.7799C60.383 94.561 61.6494 94.561 62.4304 93.7799L68.1848 88.0255C68.9659 87.2445 68.9659 85.9781 68.1848 85.1971L37.4804 54.4926Z" fill="url(#paint0_linear)"/>
<defs>
<linearGradient id="paint0_linear" x1="48.5412" y1="0.968628" x2="48.5412" y2="147.304" gradientUnits="userSpaceOnUse">
<stop stop-color="#3867D6"/>
<stop offset="1" stop-color="#20BF6B"/>
</linearGradient>
</defs>
</svg>
